<svg width="1366" height="229" viewBox="0 0 1366 229" fill="none" xmlns="http://www.w3.org/2000/svg">
<rect y="117.391" width="24.1896" height="110.988" rx="2" fill="#F2F6FF"/>
<rect width="24.1896" height="110.988" rx="2" transform="matrix(-1 0 0 1 828.849 117.391)" fill="#F2F6FF"/>
<rect width="24.1896" height="143.003" rx="2" transform="matrix(-1 0 0 1 411.934 85.375)" fill="#F2F6FF"/>
<rect width="35.5729" height="143.003" rx="2" transform="matrix(-1 0 0 1 1104.89 85.375)" fill="#F2F6FF"/>
<rect x="872.248" y="117.391" width="24.1896" height="110.988" rx="2" fill="#F2F6FF"/>
<rect width="24.1896" height="110.988" rx="2" transform="matrix(-1 0 0 1 1342.52 117.391)" fill="#F2F6FF"/>
<rect width="36.9958" height="119.525" rx="2" transform="matrix(-1 0 0 1 237.627 108.853)" fill="#F2F6FF"/>
<rect width="24.1896" height="166.481" rx="2" transform="matrix(-1 0 0 1 925.607 61.8969)" fill="#F2F6FF"/>
<rect x="89.6437" y="79.6833" width="24.1896" height="148.695" rx="2" fill="#F2F6FF"/>
<rect width="24.1896" height="106.719" rx="2" transform="matrix(-1 0 0 1 322.291 121.659)" fill="#F2F6FF"/>
<rect width="24.1896" height="106.719" rx="2" transform="matrix(-1 0 0 1 1015.25 121.659)" fill="#F2F6FF"/>
<rect x="506.558" y="121.659" width="24.1896" height="106.719" rx="2" fill="#F2F6FF"/>
<rect width="17.075" height="84.6635" rx="2" transform="matrix(-1 0 0 1 799.679 143.715)" fill="#F2F6FF"/>
<rect width="33.4385" height="143.003" rx="2" transform="matrix(-1 0 0 1 1080.71 85.375)" fill="#F2F6FF"/>
<rect x="446.084" y="85.375" width="17.075" height="143.003" rx="2" fill="#F2F6FF"/>
<rect x="1139.04" y="85.375" width="17.075" height="143.003" rx="2" fill="#F2F6FF"/>
<rect x="118.814" y="159.367" width="22.0552" height="69.0115" rx="2" fill="#F2F6FF"/>
<rect x="283.16" y="159.367" width="14.2292" height="69.0115" rx="2" fill="#F2F6FF"/>
<rect width="17.075" height="88.9323" rx="2" transform="matrix(-1 0 0 1 986.081 139.446)" fill="#F2F6FF"/>
<rect x="535.728" y="139.446" width="17.075" height="88.9323" rx="2" fill="#F2F6FF"/>
<rect x="1230.11" y="139.446" width="17.075" height="88.9323" rx="2" fill="#F2F6FF"/>
<rect x="26.324" y="108.853" width="33.4385" height="119.525" rx="2" fill="#F2F6FF"/>
<rect width="33.4385" height="93.201" rx="2" transform="matrix(-1 0 0 1 360.709 135.177)" fill="#F2F6FF"/>
<rect width="33.4385" height="93.201" rx="2" transform="matrix(-1 0 0 1 1053.67 135.177)" fill="#F2F6FF"/>
<rect x="468.14" y="135.177" width="33.4385" height="93.201" rx="2" fill="#F2F6FF"/>
<rect x="1152.56" y="135.177" width="41.976" height="93.201" rx="2" fill="#F2F6FF"/>
<rect x="147.272" y="70.4344" width="42.6875" height="157.944" rx="2" fill="#F2F6FF"/>
<rect x="833.829" y="61.8969" width="33.4385" height="166.481" rx="2" fill="#F2F6FF"/>
<rect width="33.4385" height="166.481" rx="2" transform="matrix(-1 0 0 1 271.066 61.8969)" fill="#F2F6FF"/>
<rect width="33.4385" height="166.481" rx="2" transform="matrix(-1 0 0 1 964.026 61.8969)" fill="#F2F6FF"/>
<rect x="557.783" y="61.8969" width="33.4385" height="166.481" rx="2" fill="#F2F6FF"/>
<rect x="1255.01" y="61.8969" width="51.225" height="166.481" rx="2" fill="#F2F6FF"/>
<path d="M1337.41 214.024C1337.91 213.654 1338.2 213.078 1338.21 212.463L1342.17 0L1346.12 212.463C1346.13 213.078 1346.43 213.654 1346.92 214.024L1361.22 224.78C1362.75 225.934 1361.93 228.378 1360.01 228.378H1324.32C1322.4 228.378 1321.58 225.934 1323.12 224.78L1337.41 214.024Z" fill="#F2F6FF"/>
<path d="M1117.58 219C1118.1 218.634 1118.42 218.04 1118.43 217.402L1121.26 76.126L1124.08 217.402C1124.1 218.04 1124.41 218.634 1124.94 219L1133.14 224.74C1134.74 225.861 1133.94 228.378 1131.99 228.378H1110.53C1108.57 228.378 1107.78 225.861 1109.38 224.74L1117.58 219Z" fill="#F2F6FF"/>
<rect x="1333.27" y="30.5927" width="17.075" height="3.55729" rx="1.77865" fill="#F2F6FF"/>
<rect x="1114.86" y="95.3354" width="12.0948" height="2.13438" rx="1.06719" fill="#F2F6FF"/>
<rect x="1313.35" y="94.624" width="52.6479" height="133.754" rx="2" fill="#E5EDFE"/>
<rect width="52.6479" height="133.754" rx="2" transform="matrix(-1 0 0 1 350.037 94.624)" fill="#E5EDFE"/>
<rect x="244.742" y="130.908" width="38.4188" height="97.4698" rx="2" fill="#E5EDFE"/>
<rect x="946.24" y="41.2646" width="73.9917" height="187.114" rx="2" fill="#E5EDFE"/>
<rect y="92.4896" width="30.5927" height="135.889" rx="2" fill="#E5EDFE"/>
<path d="M1169.64 66.576C1169.64 65.2802 1170.85 64.3264 1172.11 64.6327L1220.76 76.466C1221.65 76.684 1222.29 77.4868 1222.29 78.4093V226.378C1222.29 227.483 1221.39 228.378 1220.29 228.378H1171.64C1170.53 228.378 1169.64 227.483 1169.64 226.378V66.576Z" fill="#E5EDFE"/>
<path d="M493.752 66.576C493.752 65.2802 492.539 64.3264 491.279 64.6327L442.631 76.466C441.735 76.684 441.104 77.4868 441.104 78.4093V226.378C441.104 227.483 442 228.378 443.104 228.378H491.752C492.857 228.378 493.752 227.483 493.752 226.378V66.576Z" fill="#E5EDFE"/>
<path d="M138.734 111.396C138.734 110.101 139.947 109.147 141.206 109.452L175.624 117.796C176.521 118.014 177.153 118.817 177.153 119.74V226.378C177.153 227.483 176.258 228.378 175.153 228.378H140.734C139.63 228.378 138.734 227.483 138.734 226.378V111.396Z" fill="#E5EDFE"/>
<path d="M1239.36 161.464C1239.36 160.63 1239.88 159.884 1240.66 159.591L1293.57 139.748C1294.88 139.257 1296.28 140.224 1296.28 141.62V226.378C1296.28 227.483 1295.38 228.378 1294.28 228.378H1241.36C1240.26 228.378 1239.36 227.483 1239.36 226.378V161.464Z" fill="#E5EDFE"/>
<path d="M424.029 161.464C424.029 160.63 423.512 159.884 422.731 159.591L369.815 139.748C368.507 139.257 367.113 140.224 367.113 141.62V226.378C367.113 227.483 368.008 228.378 369.113 228.378H422.029C423.134 228.378 424.029 227.483 424.029 226.378V161.464Z" fill="#E5EDFE"/>
<path d="M189.959 179.891C189.959 179.059 190.474 178.314 191.253 178.02L228.517 163.946C229.826 163.452 231.224 164.419 231.224 165.817V226.378C231.224 227.483 230.329 228.378 229.224 228.378H191.959C190.855 228.378 189.959 227.483 189.959 226.378V179.891Z" fill="#E5EDFE"/>
<path d="M843.078 134.362C843.078 133.528 843.596 132.781 844.377 132.489L920.061 104.172C921.368 103.683 922.761 104.649 922.761 106.045V226.378C922.761 227.483 921.866 228.378 920.761 228.378H845.078C843.974 228.378 843.078 227.483 843.078 226.378V134.362Z" fill="#E5EDFE"/>
<path d="M820.311 134.406C820.311 133.55 819.767 132.789 818.956 132.513L735.447 104.063C734.15 103.621 732.802 104.585 732.802 105.956V226.378C732.802 227.483 733.698 228.378 734.802 228.378H818.311C819.416 228.378 820.311 227.483 820.311 226.378V134.406Z" fill="#E5EDFE"/>
<path d="M1145.45 155.675C1145.45 154.57 1144.55 153.675 1143.45 153.675L1043.57 153.675C1042.47 153.675 1041.57 154.57 1041.57 155.675V226.378C1041.57 227.483 1042.47 228.378 1043.57 228.378H1143.45C1144.55 228.378 1145.45 227.483 1145.45 226.378V155.675Z" fill="#E5EDFE"/>
<path d="M517.942 162.711C517.942 161.932 518.394 161.224 519.101 160.896L593.484 126.46C594.259 126.101 595.176 126.274 595.767 126.89L628.372 160.853C628.729 161.225 628.929 161.722 628.929 162.238V226.378C628.929 227.483 628.034 228.378 626.929 228.378H519.942C518.837 228.378 517.942 227.483 517.942 226.378V162.711Z" fill="#E5EDFE"/>
<path d="M126.64 180.871C126.64 180.094 126.189 179.387 125.484 179.058L72.2823 154.281C71.5049 153.919 70.5832 154.093 69.9911 154.713L46.7979 179.017C46.4429 179.389 46.2448 179.883 46.2448 180.398V226.378C46.2448 227.483 47.1402 228.378 48.2448 228.378H124.64C125.744 228.378 126.64 227.483 126.64 226.378V180.871Z" fill="#E5EDFE"/>
</svg>
